<svg xmlns="http://www.w3.org/2000/svg">

	<symbol id="fb" viewBox="0 0 32 32" width="32px" height="32px">
		<path fill-rule="evenodd"  fill="rgb(189, 209, 223)"
		d="M16.000,-0.000 C24.836,-0.000 32.000,7.163 32.000,15.999 C32.000,24.836 24.836,32.000 16.000,32.000 C7.163,32.000 -0.000,24.836 -0.000,15.999 C-0.000,7.163 7.163,-0.000 16.000,-0.000 Z"/>
		<path fill-rule="evenodd"  fill="rgb(255, 255, 255)"
		d="M18.979,8.940 L17.328,8.940 C17.328,8.940 14.015,8.693 14.015,12.185 C14.015,12.932 14.015,13.991 14.015,13.991 L12.015,13.991 L12.021,15.998 L14.014,15.998 L13.984,24.012 L17.014,24.012 L17.014,16.029 L18.752,15.998 L19.376,13.991 L16.982,13.991 L16.982,11.926 C16.982,11.926 16.957,11.010 18.031,11.010 L18.969,11.010 L18.979,8.940 Z"/>
	</symbol>

	<symbol id="twit" viewBox="0 0 32 32" width="32px" height="32px">
		<path fill-rule="evenodd"  fill="rgb(189, 209, 223)"
 		d="M16.000,-0.000 C24.836,-0.000 32.000,7.163 32.000,15.999 C32.000,24.836 24.836,32.000 16.000,32.000 C7.163,32.000 -0.000,24.836 -0.000,15.999 C-0.000,7.163 7.163,-0.000 16.000,-0.000 Z"/>
		<path fill-rule="evenodd"  fill="rgb(255, 255, 255)"
 		d="M24.984,11.656 C24.360,11.937 23.689,12.127 22.985,12.212 C23.704,11.774 24.256,11.082 24.516,10.256 C23.843,10.662 23.098,10.956 22.305,11.114 C21.670,10.427 20.765,9.998 19.764,9.998 C17.841,9.998 16.282,11.581 16.282,13.533 C16.282,13.810 16.313,14.080 16.372,14.338 C13.479,14.191 10.913,12.784 9.197,10.645 C8.897,11.167 8.725,11.774 8.725,12.422 C8.725,13.648 9.340,14.730 10.274,15.364 C9.704,15.346 9.166,15.187 8.697,14.923 C8.697,14.937 8.697,14.952 8.697,14.967 C8.697,16.680 9.897,18.108 11.489,18.433 C11.198,18.514 10.890,18.557 10.572,18.557 C10.348,18.557 10.130,18.535 9.917,18.494 C10.360,19.898 11.646,20.921 13.170,20.949 C11.978,21.897 10.477,22.462 8.846,22.462 C8.565,22.462 8.288,22.445 8.016,22.412 C9.556,23.416 11.386,24.001 13.352,24.001 C19.755,24.001 23.257,18.614 23.257,13.943 C23.257,13.790 23.254,13.637 23.247,13.485 C23.927,12.987 24.517,12.365 24.984,11.656 Z"/>
	</symbol>

	<symbol id="linkedin" viewBox="0 0 32 32" width="32px" height="32px">
<path fill-rule="evenodd"  fill="rgb(189, 209, 223)"
 d="M16.000,-0.000 C24.837,-0.000 32.000,7.163 32.000,15.999 C32.000,24.836 24.837,32.000 16.000,32.000 C7.163,32.000 -0.000,24.836 -0.000,15.999 C-0.000,7.163 7.163,-0.000 16.000,-0.000 Z"/>
<path fill-rule="evenodd"  fill="rgb(255, 255, 255)"
 d="M21.007,22.979 L21.007,16.577 C21.007,15.180 20.041,14.226 18.819,14.226 C17.886,14.226 17.348,14.869 17.103,15.490 C17.014,15.712 16.992,16.023 16.992,16.334 L16.992,22.979 L14.015,22.979 L14.015,11.987 L16.702,11.987 L17.023,13.109 C17.467,12.399 18.429,11.606 20.250,11.606 C22.471,11.606 24.006,12.901 24.006,16.096 L24.006,22.979 L21.007,22.979 ZM10.568,10.609 C9.442,10.609 8.687,9.892 8.687,8.918 C8.687,7.921 9.438,7.214 10.587,7.214 C11.737,7.214 12.441,7.921 12.464,8.918 C12.464,9.892 11.764,10.609 10.568,10.609 ZM12.007,23.010 L8.996,23.010 L8.996,11.987 L12.007,11.987 L12.007,23.010 Z"/>
</symbol>

<symbol id="mail" viewBox="0 0 32 32" width="32px" height="32px">
<path fill-rule="evenodd"  fill="rgb(189, 209, 223)"
 d="M16.000,-0.000 C24.837,-0.000 32.000,7.163 32.000,15.999 C32.000,24.836 24.837,32.000 16.000,32.000 C7.163,32.000 -0.000,24.836 -0.000,15.999 C-0.000,7.163 7.163,-0.000 16.000,-0.000 Z"/>
<path fill-rule="evenodd"  fill="rgb(255, 255, 255)"
 d="M8.609,12.178 C9.096,12.448 14.847,16.189 15.098,16.327 C15.349,16.466 15.675,16.534 16.003,16.534 C16.331,16.534 16.657,16.466 16.908,16.327 C17.159,16.189 22.910,12.448 23.397,12.178 C23.885,11.908 24.347,11.060 23.451,11.060 L8.555,11.060 C7.660,11.060 8.121,11.908 8.609,12.178 ZM23.604,14.238 C23.050,14.536 17.247,18.205 16.908,18.387 C16.569,18.570 16.331,18.594 16.003,18.594 C15.675,18.594 15.437,18.570 15.098,18.387 C14.759,18.205 8.956,14.536 8.402,14.238 C8.012,14.028 8.016,14.274 8.016,14.464 C8.016,14.654 8.016,22.019 8.016,22.019 C8.016,22.451 8.573,23.007 9.006,23.007 L23.000,23.007 C23.433,23.007 23.991,22.451 23.991,22.019 C23.991,22.019 23.991,14.654 23.991,14.464 C23.991,14.274 23.994,14.028 23.604,14.238 Z"/>
</symbol>
</svg>